<?xml version="1.0" encoding="utf-8"?>
<!-- Uploaded to: SVG Repo, www.svgrepo.com, Generator: SVG Repo Mixer Tools -->
<svg width="800px" height="800px" viewBox="-2.46 0 63.925 63.925" xmlns="http://www.w3.org/2000/svg">
  <g id="Group_138" data-name="Group 138" transform="translate(-568.355 -177.86)">
    <g id="XMLID_2_">
      <g id="Group_137" data-name="Group 137">
        <path id="Path_106" data-name="Path 106" d="M627.355,193.285v46.5a2,2,0,0,1-4,0v-46.5a4.965,4.965,0,0,0-9.93,0v39.54a8.971,8.971,0,0,1-8.96,8.96h-12.11a8.979,8.979,0,0,1-8.97-8.96v-8.77a41.3,41.3,0,0,1-6.61-.88v3.74a2,2,0,0,1-4,0V222.1c-1.07-.34-2.13-.72-3.18-1.16a1.979,1.979,0,0,1-1.24-1.84v-36.22a2,2,0,0,1,1.24-1.85,41,41,0,0,1,31.59,0,2,2,0,0,1,1.24,1.85V219.1a2,2,0,0,1-1.24,1.85c-1.05.43-2.11.81-3.18,1.15v4.82a2,2,0,0,1-4,0v-3.74a41.27,41.27,0,0,1-6.62.88v8.77a4.974,4.974,0,0,0,4.97,4.96h12.11a4.966,4.966,0,0,0,4.96-4.96v-39.54a8.965,8.965,0,0,1,17.93,0Zm-28.93,24.45v-33.5a37.031,37.031,0,0,0-26.07,0v33.5A37.031,37.031,0,0,0,598.425,217.735Z" fill="#03373d"/>
        <path id="Path_107" data-name="Path 107" d="M598.425,212.505v5.23a37.031,37.031,0,0,1-26.07,0v-5.23h2.53a2,2,0,0,0,2,2h17a1.981,1.981,0,0,0,2-2Z" fill="#ef472e"/>
        <path id="Path_108" data-name="Path 108" d="M598.425,184.235v28.27h-2.54v-22.39a2,2,0,0,0-2-2h-17a1.983,1.983,0,0,0-1.41.59,2.008,2.008,0,0,0-.59,1.41v22.39h-2.53v-28.27A37.031,37.031,0,0,1,598.425,184.235Z" fill="#ccc"/>
        <path id="Path_109" data-name="Path 109" d="M595.885,190.115v22.39a1.981,1.981,0,0,1-2,2h-17a2,2,0,0,1-2-2v-22.39a2.007,2.007,0,0,1,.59-1.41,1.983,1.983,0,0,1,1.41-.59h17A2,2,0,0,1,595.885,190.115Zm-4,20.39v-18.39h-13v18.39Z" fill="#03373d"/>
        <path id="Path_110" data-name="Path 110" d="M591.885,192.115v18.39h-13v-18.39Zm-6.49,15.64a5.015,5.015,0,0,0,5-5c0-3.45-3.55-7.02-3.96-7.42a1.491,1.491,0,0,0-2.09,0c-.4.39-3.95,3.93-3.95,7.42A5.008,5.008,0,0,0,585.4,207.755Z" fill="#e6e6e6"/>
        <path id="Path_111" data-name="Path 111" d="M590.4,202.755a5,5,0,0,1-10,0c0-3.49,3.55-7.03,3.95-7.42a1.491,1.491,0,0,1,2.09,0C586.845,195.735,590.4,199.3,590.4,202.755Zm-5,2a2.006,2.006,0,0,0,2-2c0-1.21-1.01-2.85-2-4.1-.93,1.15-2,2.8-2,4.1A2,2,0,0,0,585.4,204.755Z" fill="#03373d"/>
        <path id="Path_112" data-name="Path 112" d="M587.4,202.755a2,2,0,0,1-4,0c0-1.3,1.07-2.95,2-4.1C586.385,199.9,587.4,201.545,587.4,202.755Z" fill="#ef472e"/>
      </g>
    </g>
  </g>
</svg>