<?xml version="1.0" encoding="iso-8859-1"?>
<!-- Uploaded to: SVG Repo, www.svgrepo.com, Generator: SVG Repo Mixer Tools -->
<svg height="800px" width="800px" version="1.1" id="Layer_1" xmlns="http://www.w3.org/2000/svg" xmlns:xlink="http://www.w3.org/1999/xlink" 
	 viewBox="0 0 496.182 496.182" xml:space="preserve">
<path style="fill:#4ABC96;" d="M248.093,0C111.075,0,0,111.063,0,248.091c0,137.012,111.074,248.091,248.094,248.091
	c137.011,0,248.087-111.079,248.087-248.091C496.181,111.063,385.105,0,248.093,0z"/>
<path style="fill:#E0DFDC;" d="M302.004,69.237c0,0-21.178,20.855-54.988,20.855s-54.988-20.855-54.988-20.855
	s-3.962,85.493,54.705,85.493S302.004,69.237,302.004,69.237z"/>
<path style="fill:#EFEDE6;" d="M359.065,100.113c-8.449-16.688-57.061-30.879-57.061-30.879s-6.293,74.857-54.989,74.857
	s-54.988-74.857-54.988-74.857s-48.81,14.1-57.061,30.879c-9.198,18.706-21.226,54.964-27.935,69.899c0,0,3.648,5.412,13.314,15.078
	s20.126,14.269,20.126,14.269c7.87-13.088,15.836-24.723,15.836-24.723l12.884,101.455l-16.382,111
	c0,13.5,17.218,16.846,38.465,16.846h111.483c21.247,0,38.465-3.346,38.465-16.846l-16.381-111l12.882-101.454
	c0,0,8.119,11.858,16.061,25.098c0,0,9.562-4.311,20.229-14.311s13.5-15.333,13.5-15.333
	C380.937,155.554,368.828,119.395,359.065,100.113z"/>
<g>
	<path style="fill:#E0DFDC;" d="M156.633,156.091c-0.25-7.75-3.333-26-3.333-26s-1,29,2.857,44.546
		C156.156,174.637,156.883,163.841,156.633,156.091z"/>
	<path style="fill:#E0DFDC;" d="M340.732,130.091c0,0-3.083,18.25-3.333,26s0.477,18.546,0.477,18.546
		C341.732,159.091,340.732,130.091,340.732,130.091z"/>
</g>
</svg>