<?xml version="1.0" encoding="iso-8859-1"?>
<!-- Uploaded to: SVG Repo, www.svgrepo.com, Generator: SVG Repo Mixer Tools -->
<svg version="1.1" id="Layer_1" xmlns="http://www.w3.org/2000/svg" xmlns:xlink="http://www.w3.org/1999/xlink" 
	 viewBox="0 0 511.999 511.999" xml:space="preserve">
<rect x="144.195" y="65.014" style="fill:#FF4444;" width="223.608" height="83.592"/>
<path style="fill:#FFD41D;" d="M144.195,148.601L10.448,357.656c0,0,93.443,89.334,245.551,89.334s245.551-89.334,245.551-89.334
	L367.803,148.601H144.195z"/>
<path d="M510.352,352.024l-132.1-206.48V65.009c0-5.771-4.678-10.449-10.449-10.449H144.195c-5.771,0-10.449,4.678-10.449,10.449
	v80.535L1.647,352.024c-2.692,4.208-2.029,9.732,1.582,13.183c0.997,0.953,24.913,23.605,68.083,46.359
	c39.705,20.926,103.977,45.872,184.687,45.872s144.982-24.946,184.687-45.872c43.17-22.754,67.087-45.406,68.083-46.359
	C512.382,361.757,513.043,356.232,510.352,352.024z M154.644,75.458h202.71v62.694h-202.71V75.458z M430.257,393.44
	c-6.58,3.45-13.888,7.016-21.852,10.552l-87.969-152.976c-2.877-5.002-9.263-6.727-14.267-3.849
	c-5.002,2.877-6.725,9.264-3.849,14.267l86.589,150.579c-32.901,12.477-74.413,23.007-122.459,24.365V301.016
	c0-5.771-4.679-10.449-10.449-10.449c-5.771,0-10.449,4.678-10.449,10.449v135.362c-48.038-1.357-89.544-11.884-122.445-24.358
	l86.571-150.587c2.876-5.003,1.153-11.39-3.85-14.266c-5.006-2.878-11.391-1.153-14.267,3.852l-87.949,152.983
	c-7.972-3.539-15.286-7.107-21.871-10.561c-28.353-14.869-48.126-29.89-57.631-37.749l125.805-196.641h212.167l125.805,196.641
	C478.38,363.552,458.608,378.572,430.257,393.44z"/>
<path d="M256.001,252.084c-5.771,0-10.449,4.678-10.449,10.449v4.678c0,5.771,4.678,10.449,10.449,10.449
	c5.77,0,10.449-4.678,10.449-10.449v-4.678C266.45,256.762,261.772,252.084,256.001,252.084z"/>
<path d="M317.104,96.356h-4.678c-5.77,0-10.449,4.678-10.449,10.449c0,5.771,4.679,10.449,10.449,10.449h4.678
	c5.77,0,10.449-4.678,10.449-10.449C327.553,101.034,322.874,96.356,317.104,96.356z"/>
<path d="M278.623,96.356H177.131c-5.77,0-10.449,4.678-10.449,10.449c0,5.771,4.679,10.449,10.449,10.449h101.492
	c5.77,0,10.449-4.678,10.449-10.449C289.072,101.034,284.393,96.356,278.623,96.356z"/>
</svg>